<?xml version="1.0" encoding="utf-8"?>
<svg xmlns="http://www.w3.org/2000/svg" width="50" height="50" viewBox="0 0 50 50" fill="#ffffff"><path style="text-indent:0;text-align:start;line-height:normal;text-transform:none;block-progression:tb;-inkscape-font-specification:Bitstream Vera Sans" d="M 25 0 C 22.802706 0 21 1.8027056 21 4 C 21 4.5146063 21.101583 5.0155181 21.28125 5.46875 C 15.654551 6.9296199 12 11.815263 12 18 C 12 25.833333 10.077397 29.400225 8.25 31.40625 C 7.3363013 32.409263 6.4349216 33.020972 5.65625 33.59375 C 5.2669142 33.880139 4.9112278 34.164847 4.59375 34.53125 C 4.2762722 34.897653 4 35.421827 4 36 C 4 37.373083 4.8442753 38.542808 6.03125 39.3125 C 7.2182247 40.082192 8.778648 40.579663 10.65625 40.96875 C 13.092485 41.473599 16.100559 41.737891 19.40625 41.875 C 19.158041 42.537921 19 43.255009 19 44 C 19 47.302188 21.697812 50 25 50 C 28.302188 50 31 47.302188 31 44 C 31 43.251039 30.848174 42.535967 30.59375 41.875 C 33.899441 41.737891 36.907515 41.473599 39.34375 40.96875 C 41.221352 40.579663 42.781775 40.082192 43.96875 39.3125 C 45.155725 38.542808 46 37.373083 46 36 C 46 35.421827 45.723728 34.897653 45.40625 34.53125 C 45.088772 34.164847 44.733086 33.880139 44.34375 33.59375 C 43.565078 33.020972 42.663699 32.409263 41.75 31.40625 C 39.922603 29.400225 38 25.833333 38 18 C 38 11.820852 34.335618 6.9373453 28.71875 5.46875 C 28.898417 5.0155181 29 4.5146063 29 4 C 29 1.8027056 27.197294 0 25 0 z M 25 2 C 26.116414 2 27 2.883586 27 4 C 27 5.116414 26.116414 6 25 6 C 23.883586 6 23 5.116414 23 4 C 23 2.883586 23.883586 2 25 2 z M 27.34375 7.1875 C 32.676942 8.1385122 36 12.256878 36 18 C 36 26.166667 38.077397 30.365025 40.25 32.75 C 41.336301 33.942487 42.434922 34.688153 43.15625 35.21875 C 43.516914 35.484049 43.786228 35.705232 43.90625 35.84375 C 44.026272 35.982268 44 35.969173 44 36 C 44 36.626917 43.712088 37.082192 42.875 37.625 C 42.037912 38.167808 40.679148 38.670337 38.9375 39.03125 C 35.454204 39.753077 30.492823 40 25 40 C 19.507177 40 14.545796 39.753077 11.0625 39.03125 C 9.320852 38.670337 7.9620878 38.167808 7.125 37.625 C 6.2879122 37.082192 6 36.626917 6 36 C 6 35.96917 5.973728 35.98227 6.09375 35.84375 C 6.2137722 35.705232 6.4830858 35.484049 6.84375 35.21875 C 7.5650784 34.688153 8.6636987 33.942487 9.75 32.75 C 11.922603 30.365025 14 26.166667 14 18 C 14 12.26036 17.329977 8.1734921 22.65625 7.21875 C 23.318888 7.7057648 24.120815 8 25 8 C 25.886307 8 26.678255 7.681695 27.34375 7.1875 z M 21.5625 41.9375 C 22.683697 41.962727 23.825239 42 25 42 C 26.174761 42 27.316303 41.962727 28.4375 41.9375 C 28.794921 42.537621 29 43.249381 29 44 C 29 46.221812 27.221812 48 25 48 C 22.778188 48 21 46.221812 21 44 C 21 43.242043 21.201077 42.5385 21.5625 41.9375 z" color="#000" overflow="visible" enable-background="accumulate" font-family="Bitstream Vera Sans" fill="#ffffff"/></svg>
