<?xml version="1.0" encoding="utf-8"?>
<svg xmlns="http://www.w3.org/2000/svg" viewBox="0 0 50 50" enable-background="new 0 0 50 50" fill="#ffffff"><path style="text-indent:0;text-align:start;line-height:normal;text-transform:none;block-progression:tb;-inkscape-font-specification:Bitstream Vera Sans" d="M 39.375 0 A 1.0001 1.0001 0 0 0 38.71875 0.375 L 36.53125 3 L 33 3 A 1.0001 1.0001 0 0 0 32 4 L 32 7.53125 L 29.375 9.71875 A 1.0001 1.0001 0 0 0 29.375 11.28125 L 32 13.46875 L 32 17 A 1.0001 1.0001 0 0 0 33 18 L 36.53125 18 L 38.71875 20.625 A 1.0001 1.0001 0 0 0 40.28125 20.625 L 42.46875 18 L 46 18 A 1.0001 1.0001 0 0 0 47 17 L 47 13.46875 L 49.625 11.28125 A 1.0001 1.0001 0 0 0 49.625 9.71875 L 47 7.53125 L 47 4 A 1.0001 1.0001 0 0 0 46 3 L 42.46875 3 L 40.28125 0.375 A 1.0001 1.0001 0 0 0 39.375 0 z M 39.5 2.5625 L 41.21875 4.625 A 1.0001 1.0001 0 0 0 42 5 L 45 5 L 45 8 A 1.0001 1.0001 0 0 0 45.375 8.78125 L 47.4375 10.5 L 45.375 12.21875 A 1.0001 1.0001 0 0 0 45 13 L 45 16 L 42 16 A 1.0001 1.0001 0 0 0 41.21875 16.375 L 39.5 18.4375 L 37.78125 16.375 A 1.0001 1.0001 0 0 0 37 16 L 34 16 L 34 13 A 1.0001 1.0001 0 0 0 33.625 12.21875 L 31.5625 10.5 L 33.625 8.78125 A 1.0001 1.0001 0 0 0 34 8 L 34 5 L 37 5 A 1.0001 1.0001 0 0 0 37.78125 4.625 L 39.5 2.5625 z M 39.5 6 C 37.026563 6 35 8.0265634 35 10.5 C 35 12.973437 37.026563 15 39.5 15 C 41.973437 15 44 12.973437 44 10.5 C 44 8.0265634 41.973437 6 39.5 6 z M 39.5 8 C 40.892557 8 42 9.1074434 42 10.5 C 42 11.892557 40.892557 13 39.5 13 C 38.107443 13 37 11.892557 37 10.5 C 37 9.1074434 38.107443 8 39.5 8 z M 16.875 18 A 1.0001 1.0001 0 0 0 16.125 18.53125 L 0.125 48.53125 A 1.0001 1.0001 0 0 0 1 50 L 32.84375 50 L 33 50 A 1.0001 1.0001 0 0 0 33.09375 50 L 49 50 A 1.0001 1.0001 0 0 0 49.875 48.53125 L 36.875 24.53125 A 1.0001 1.0001 0 0 0 35.875 24 A 1.0001 1.0001 0 0 0 35.125 24.53125 L 28.03125 37.5625 L 17.875 18.53125 A 1.0001 1.0001 0 0 0 16.875 18 z M 17 21.125 L 31.34375 48 L 2.65625 48 L 17 21.125 z M 36 27.09375 L 47.34375 48 L 33.59375 48 L 29.125 39.65625 L 36 27.09375 z" color="#000" overflow="visible" enable-background="accumulate" font-family="Bitstream Vera Sans" fill="#ffffff"/></svg>
