<?xml version="1.0" encoding="utf-8"?>
<svg xmlns="http://www.w3.org/2000/svg" viewBox="0 0 50 50" enable-background="new 0 0 50 50" fill="#ffffff"><path style="text-indent:0;text-align:start;line-height:normal;text-transform:none;block-progression:tb;-inkscape-font-specification:Bitstream Vera Sans" d="M 30.28125 0 A 1.0001 1.0001 0 0 0 29.6875 0.28125 C 28.164307 1.8044427 27.752299 4.4300506 27.46875 6.75 C 27.300004 8.1306543 27.245753 9.2245163 27.21875 10.03125 C 26.471376 9.9430506 25.713333 9.9099979 24.9375 9.9375 C 24.54083 9.9515614 24.153938 9.9858038 23.75 10.03125 C 22.641784 10.155933 21.502755 10.41552 20.34375 10.78125 A 1.0051139 1.0051139 0 0 0 20.25 10.8125 A 1.0051139 1.0051139 0 0 0 20.125 10.84375 A 1.0051139 1.0051139 0 0 0 19.875 10.9375 C 16.240819 12.181067 12.393603 14.604421 8.46875 18.375 C 8.3168849 18.520896 8.152054 18.631308 8 18.78125 C 5.1514822 21.657157 3.1641567 24.414169 1.875 27.03125 A 1.0051139 1.0051139 0 0 0 1.59375 27.65625 C 0.67412697 29.689748 0.15326928 31.633557 0.0625 33.5 C -0.039670319 35.600877 0.37588368 37.555445 1.15625 39.375 A 1.0001 1.0001 0 0 0 1.46875 40.03125 C 2.3326942 41.799165 3.5302981 43.436548 5 44.90625 C 5.6519536 45.558204 6.3565969 46.132459 7.0625 46.6875 A 1.0030471 1.0030471 0 0 0 7.4375 47 C 7.7292681 47.218104 8.0120046 47.426286 8.3125 47.625 A 1.0045064 1.0045064 0 0 0 8.375 47.6875 C 8.3821388 47.69217 8.3991062 47.682841 8.40625 47.6875 A 1.0045064 1.0045064 0 0 0 8.46875 47.75 A 1.0045064 1.0045064 0 0 0 8.84375 47.96875 C 8.8587171 47.977889 8.8912615 47.959662 8.90625 47.96875 C 11.112519 49.306407 13.543876 50.108245 16.25 50 C 20.654325 49.823827 25.539955 47.366295 31.09375 41.8125 C 38.080565 34.825685 40.748466 28.252809 40.0625 22.65625 C 40.872507 22.626099 41.952024 22.564892 43.25 22.40625 C 45.569949 22.122701 48.195557 21.741943 49.71875 20.21875 A 1.0001 1.0001 0 0 0 49.71875 18.78125 C 48.984907 18.047407 47.867979 17.395638 46.5625 16.6875 C 45.890579 16.323026 45.17326 15.950817 44.4375 15.59375 C 45.390258 15.504407 46.374609 15.381007 47.25 15.1875 C 48.211868 14.974877 49.057286 14.755214 49.71875 14.09375 A 1.0001 1.0001 0 0 0 49.71875 12.6875 C 49.134608 12.103358 48.340494 11.692537 47.40625 11.25 C 46.472006 10.807463 45.411424 10.368988 44.40625 10 C 44.315367 9.966638 44.275277 9.9379722 44.1875 9.90625 C 44.524419 9.3576009 44.951252 8.6382987 45.40625 7.84375 C 45.833383 7.0978603 46.238142 6.3405645 46.53125 5.6875 C 46.677804 5.3609678 46.798353 5.0545159 46.875 4.75 C 46.913323 4.597742 46.940849 4.458742 46.9375 4.25 C 46.934151 4.041258 46.896058 3.7085576 46.59375 3.40625 C 46.291442 3.1039424 45.958742 3.0658488 45.75 3.0625 C 45.541258 3.05915 45.402258 3.086677 45.25 3.125 C 44.945484 3.201647 44.639032 3.3221962 44.3125 3.46875 C 43.659436 3.7618577 42.90214 4.1666166 42.15625 4.59375 C 41.361702 5.0487479 40.642399 5.4755809 40.09375 5.8125 C 40.062028 5.7247229 40.033362 5.6846327 40 5.59375 C 39.631012 4.5885761 39.192537 3.5279943 38.75 2.59375 C 38.307463 1.6595057 37.896642 0.86539239 37.3125 0.28125 A 1.0001 1.0001 0 0 0 36.5 0 A 1.0001 1.0001 0 0 0 35.90625 0.28125 C 35.299476 0.88802389 34.988987 1.6906034 34.71875 2.5625 C 34.469749 3.3658812 34.270168 4.2478661 34.125 5.09375 C 33.169534 3.1446468 32.142953 1.3304531 31.09375 0.28125 A 1.0001 1.0001 0 0 0 30.28125 0 z M 30.5 2.96875 C 31.413236 4.3401878 32.549382 6.3583782 33.5 8.46875 C 33.57478 8.6347609 33.61517 8.742925 33.6875 8.90625 A 1.0019512 1.0019512 0 0 0 33.6875 8.9375 A 1.0019512 1.0019512 0 0 0 33.875 9.40625 A 1.0019512 1.0019512 0 0 0 33.9375 9.5 C 34.910181 11.743243 35.65625 13.65625 35.65625 13.65625 A 1.0001 1.0001 0 0 0 36.25 14.21875 C 36.25 14.21875 37.751134 14.824261 39.5625 15.59375 C 39.575146 15.599122 39.581059 15.619604 39.59375 15.625 A 1.0001 1.0001 0 0 0 39.65625 15.65625 A 1.0001 1.0001 0 0 0 40.03125 15.8125 C 40.040506 15.816478 40.053225 15.808511 40.0625 15.8125 C 40.577029 16.033803 40.976454 16.188458 41.53125 16.4375 C 42.923241 17.062349 44.389854 17.767513 45.625 18.4375 C 46.277715 18.791556 46.554426 19.055499 47.03125 19.375 C 45.946542 19.82712 44.521983 20.25148 43 20.4375 C 41.071328 20.673227 39.558565 20.687335 39.1875 20.6875 L 38.75 20.25 A 1.0001 1.0001 0 0 0 38.53125 20.03125 A 1.0001 1.0001 0 0 0 38.375 19.90625 L 29.1875 10.78125 C 29.194196 10.377283 29.236438 8.9007406 29.46875 7 C 29.654293 5.4819189 30.04933 4.0535384 30.5 2.96875 z M 36.6875 3.03125 C 36.787727 3.2174176 36.83798 3.2586525 36.9375 3.46875 C 37.338713 4.3157557 37.768988 5.3114239 38.125 6.28125 C 38.837024 8.2209022 39.34375 9.96875 39.34375 9.96875 A 1.0001 1.0001 0 0 0 40.03125 10.65625 C 40.03125 10.65625 41.779098 11.162976 43.71875 11.875 C 44.688576 12.231012 45.684244 12.661287 46.53125 13.0625 C 46.665368 13.12603 46.687409 13.15434 46.8125 13.21875 C 45.993118 13.399877 44.986475 13.539749 44 13.625 C 42.240186 13.777083 40.774254 13.807803 40.4375 13.8125 C 38.872942 13.145228 37.618337 12.625846 37.375 12.53125 C 37.26307 12.24177 36.618581 10.619421 35.71875 8.5625 C 35.746032 8.1835831 35.827802 7.0638097 36.0625 5.625 C 36.201596 4.7722803 36.398362 3.8874784 36.625 3.15625 C 36.64487 3.092127 36.66649 3.092659 36.6875 3.03125 z M 44.21875 5.78125 C 44.030825 6.1388908 43.874091 6.4633407 43.65625 6.84375 C 43.026741 7.9430421 42.490537 8.8122108 42.21875 9.25 C 41.679471 9.0788785 41.281564 8.962801 41.09375 8.90625 C 41.037199 8.7184356 40.921122 8.3205292 40.75 7.78125 C 41.187789 7.5094626 42.056957 6.9732592 43.15625 6.34375 C 43.536659 6.1259088 43.861109 5.9691747 44.21875 5.78125 z M 24.9375 11.96875 C 25.617519 11.948573 26.263929 11.986065 26.90625 12.0625 C 27.125329 13.276761 27.054748 14.171881 27.03125 14.875 L 21.84375 13.84375 L 21.5625 12.5 C 22.375387 12.28057 23.165845 12.118581 23.9375 12.03125 C 24.276044 11.992936 24.608273 11.978518 24.9375 11.96875 z M 29.09375 13.5 L 32.6875 17.03125 L 29.8125 16.5625 C 29.735785 16.470277 29.679812 16.367312 29.59375 16.28125 C 29.448727 16.136227 29.286156 16.025324 29.125 15.90625 C 29.150117 15.521433 29.168811 14.596546 29.09375 13.5 z M 17.3125 14.21875 A 1.0001 1.0001 0 0 0 17.5625 14.28125 C 18.676239 14.452595 19.69376 14.845098 20.15625 15.21875 A 1.0001 1.0001 0 0 0 20.46875 15.5625 C 20.859258 16.213402 21.231648 17.601108 21.34375 18.875 C 21.41842 19.723473 21.38105 19.952732 21.375 20.46875 L 16.15625 19.4375 L 15.34375 15.34375 C 16.006154 14.91763 16.667033 14.559862 17.3125 14.21875 z M 13.5625 16.625 L 13.96875 18.78125 C 13.502352 18.630239 13.023692 18.500312 12.53125 18.40625 C 12.184112 18.339943 11.844905 18.293435 11.5 18.25 C 12.187991 17.653997 12.888264 17.129494 13.5625 16.625 z M 23.03125 16.625 C 23.547268 16.619 23.776527 16.58158 24.625 16.65625 C 26.075748 16.783916 27.664597 17.241123 28.15625 17.6875 A 1.0001221 1.0001221 0 0 0 28.53125 18.28125 C 28.859154 19.002363 29.153302 20.182403 29.25 21.28125 C 29.32551 22.139359 29.2877 22.359336 29.28125 22.875 L 24.0625 21.84375 L 23.25 17.75 C 23.203323 17.368471 23.114143 17.004918 23.03125 16.625 z M 30.875 18.78125 L 35.125 19.5 A 1.014663 1.014663 0 0 0 35.15625 19.5 L 36.9375 21.25 C 37.115487 22.378996 37.073044 23.547933 37 24.40625 L 31.3125 23.28125 C 31.308217 22.716688 31.29359 21.944217 31.21875 21.09375 C 31.153507 20.35235 31.06133 19.54833 30.875 18.78125 z M 9.53125 20.09375 C 10.294914 20.112255 11.254655 20.202787 12.15625 20.375 C 13.166907 20.568047 14.065159 20.921361 14.40625 21.21875 C 14.40785 21.22015 14.40465 21.24862 14.40625 21.25 C 14.857534 21.719992 15.308247 23.312472 15.4375 24.78125 C 15.51301 25.639359 15.4752 25.859336 15.46875 26.375 L 10.25 25.34375 L 9.28125 20.375 C 9.3293776 20.325979 9.3575705 20.267898 9.40625 20.21875 C 9.4495605 20.176041 9.4879855 20.136093 9.53125 20.09375 z M 7.59375 22.1875 L 8.0625 24.5625 C 7.4070407 24.330579 6.6991118 24.210694 6 24.125 C 6.4812611 23.48258 7.0112176 22.854776 7.59375 22.1875 z M 17.21875 22.3125 C 17.734407 22.306 17.95425 22.26822 18.8125 22.34375 C 20.293263 22.474057 21.951398 22.951398 22.40625 23.40625 C 22.861102 23.861102 23.307193 25.487987 23.4375 26.96875 C 23.51217 27.817223 23.4748 28.046482 23.46875 28.5625 L 18.25 27.53125 L 17.21875 22.3125 z M 24.96875 24.09375 L 29.65625 25 C 30.088555 25.543928 30.532767 27.065527 30.65625 28.46875 C 30.73093 29.317357 30.69355 29.546486 30.6875 30.0625 L 25.53125 29.0625 C 25.538886 28.501613 25.519812 27.747879 25.4375 26.8125 C 25.360507 25.937585 25.235509 24.982428 24.96875 24.09375 z M 32.15625 25.5 L 37.71875 26.59375 A 1.0001 1.0001 0 0 0 37.9375 26.59375 C 37.297198 30.648935 34.802829 35.290921 29.6875 40.40625 C 24.341295 45.752455 19.908175 47.851173 16.1875 48 C 15.962858 48.008986 15.752057 48.004845 15.53125 48 C 15.545894 47.471939 15.537254 46.633586 15.4375 45.5 C 15.363245 44.656197 15.246183 43.736373 15 42.875 L 19.875 43.96875 A 1.0001 1.0001 0 0 0 21.09375 43.0625 C 21.09375 43.0625 21.17594 41.644237 21.03125 40 C 20.947122 39.044004 20.826025 37.987727 20.5 37.03125 L 25.8125 38.09375 A 1.0001 1.0001 0 0 0 27 37.15625 C 27 37.15625 27.08219 35.737987 26.9375 34.09375 C 26.858018 33.190551 26.755239 32.19415 26.46875 31.28125 L 31.5 32.28125 A 1.0001 1.0001 0 0 0 32.6875 31.34375 C 32.6875 31.34375 32.76969 29.956737 32.625 28.3125 C 32.545518 27.409301 32.442739 26.4129 32.15625 25.5 z M 4.71875 26.03125 C 6.2675674 26.152125 8.0376149 26.631365 8.5 27.09375 C 8.9548521 27.548602 9.4009428 29.206737 9.53125 30.6875 C 9.5995722 31.463884 9.572554 31.732991 9.5625 32.15625 C 8.886075 32.012584 8.1794988 31.9324 7.53125 31.875 L 7.5 31.875 L 4.34375 31.25 L 3.6875 27.90625 C 3.9893693 27.293861 4.3205983 26.66988 4.71875 26.03125 z M 11.4375 28.21875 C 11.953518 28.21275 12.182777 28.17533 13.03125 28.25 C 14.512013 28.380307 16.138898 28.857648 16.59375 29.3125 C 17.048602 29.767352 17.525943 31.394237 17.65625 32.875 C 17.73093 33.723607 17.69355 33.952736 17.6875 34.46875 L 12.46875 33.4375 L 11.4375 28.21875 z M 19.09375 29.75 L 23.875 30.6875 A 1.0001 1.0001 0 0 0 23.90625 30.71875 C 24.361102 31.173602 24.807193 32.800487 24.9375 34.28125 C 25.01301 35.139359 24.9752 35.359336 24.96875 35.875 L 19.71875 34.84375 C 19.721211 34.283655 19.697345 33.509618 19.625 32.6875 C 19.540872 31.731504 19.419775 30.697634 19.09375 29.75 z M 2.125 32.875 C 2.8154167 33.014286 3.3800839 33.254475 3.625 33.4375 L 4.125 36.09375 L 4.625 38.6875 L 2.90625 38.40625 C 2.2959752 36.900581 1.9793793 35.302918 2.0625 33.59375 C 2.07398 33.357692 2.0986013 33.116213 2.125 32.875 z M 5.71875 33.8125 C 6.1743139 33.806757 6.4557651 33.798619 7.09375 33.84375 L 9.625 34.3125 C 10.077793 34.457667 10.471772 34.618617 10.71875 34.78125 A 1.0001 1.0001 0 0 0 11.0625 35.15625 C 11.449492 35.801856 11.824679 37.186692 11.9375 38.46875 C 12.01217 39.317223 11.9748 39.546482 11.96875 40.0625 L 6.75 39.03125 L 5.71875 33.8125 z M 13.53125 35.6875 L 18 36.59375 C 18.454852 37.048602 18.900943 38.706737 19.03125 40.1875 C 19.10528 41.028791 19.06824 41.233843 19.0625 41.75 L 14.03125 40.59375 C 14.040094 40.034247 14.022303 39.276195 13.9375 38.3125 C 13.863494 37.471526 13.775619 36.546357 13.53125 35.6875 z M 4.0625 40.59375 L 5.125 40.78125 L 5.78125 42.84375 C 5.1208831 42.123168 4.5612444 41.364829 4.0625 40.59375 z M 7.34375 41.1875 L 12.3125 42.1875 A 1.0001 1.0001 0 0 0 12.5625 42.3125 C 12.954381 42.954838 13.323481 44.391832 13.4375 45.6875 C 13.50709 46.478336 13.47228 46.642062 13.46875 47.15625 L 9.5 46.0625 C 9.2444566 45.89731 9.0004408 45.71463 8.75 45.53125 L 7.34375 41.1875 z" fill="#ffffff"/></svg>
